<?xml version="1.0" encoding="UTF-8"?><svg id="Layer_2" xmlns="http://www.w3.org/2000/svg" viewBox="0 0 1182.71 268.65"><defs><style>.cls-1{fill-rule:evenodd;}.cls-1,.cls-2{fill:#a3a3a3;}</style></defs><g id="Layer_1-2"><g><g><path class="cls-2" d="M451.21,164.62h11.05v65.47h-11.05v-65.47Z"/><path class="cls-2" d="M538.87,164.62h11.05v65.47h-11.99l-37.09-47.76v47.76h-11.05v-65.47h11.05l38.02,48.89v-48.89Z"/><path class="cls-2" d="M602.18,174.74v55.35h-11.05v-55.35h-19.86v-10.12h50.76v10.12h-19.86Z"/><path class="cls-2" d="M689.37,164.62v10.4h-34.93v17.33h31.37v9.83h-31.37v17.51h36.06v10.4h-47.11v-65.47h45.99Z"/><path class="cls-2" d="M766.26,185.89c0,10.8-4.72,17.6-14.14,20.41l17.14,23.79h-14.05l-15.64-22.01h-14.52v22.01h-11.05v-65.47h24.35c9.99,0,17.14,1.69,21.45,5.06,4.31,3.37,6.46,8.77,6.46,16.2Zm-14.7,9.27c2.25-1.93,3.37-5.04,3.37-9.32s-1.16-7.21-3.46-8.8c-2.31-1.59-6.43-2.39-12.36-2.39h-14.05v23.41h13.77c6.24,0,10.49-.97,12.74-2.91Z"/><path class="cls-2" d="M800.81,215.2l-6.56,14.89h-11.8l28.85-65.47h11.8l28.85,65.47h-11.8l-6.56-14.89h-32.78Zm28.28-10.21l-11.89-26.97-11.89,26.97h23.79Z"/><path class="cls-2" d="M900.27,220.07c3.81,0,7.08-.64,9.83-1.92,2.75-1.28,5.62-3.32,8.62-6.13l7.12,7.31c-6.93,7.68-15.34,11.52-25.24,11.52s-18.11-3.19-24.63-9.55c-6.53-6.37-9.79-14.42-9.79-24.16s3.32-17.86,9.97-24.35c6.65-6.49,15.05-9.74,25.19-9.74s18.62,3.74,25.43,11.24l-7.02,7.68c-3.12-3-6.07-5.09-8.85-6.27-2.78-1.19-6.04-1.78-9.79-1.78-6.62,0-12.17,2.14-16.67,6.41-4.5,4.28-6.75,9.74-6.75,16.39s2.23,12.21,6.7,16.67c4.46,4.46,9.76,6.7,15.88,6.7Z"/><path class="cls-2" d="M973.41,174.74v55.35h-11.05v-55.35h-19.86v-10.12h50.76v10.12h-19.86Z"/><path class="cls-2" d="M1014.62,164.62h11.05v65.47h-11.05v-65.47Z"/><path class="cls-2" d="M1083.08,230.09h-12.36l-26.32-65.47h12.36l20.13,48.89,20.13-48.89h12.36l-26.32,65.47Z"/><path class="cls-2" d="M1174.11,164.62v10.4h-34.93v17.33h31.37v9.83h-31.37v17.51h36.06v10.4h-47.11v-65.47h45.99Z"/></g><g><path class="cls-1" d="M79.35,137.42c.32-35.91,34.23-82.1,92.03-107.35,101.72-44.44,159.99-3.47,175.07,35.27,14.06,36.11-13.75,99.51-61.9,146.75,34.37-24.63,62.44-51.08,81.91-76.78,25.84-34.1,36.54-66.88,26.72-92.33C378.68,5.38,322-6.71,250.14,3.43,178.27,13.56,123.08,31.2,78.75,53.73,29.45,78.78,4,108.55,.36,142.51c-5.28,49.32,47.56,115.61,168.45,123.78,63.53,4.3,124.47,5.73,242.45-22.91-14.05,.45-333.21,40.09-331.91-105.96Z"/><path class="cls-1" d="M196.72,194.82c37.87,0,68.75-30.88,68.75-68.75,0-37.87-30.88-68.75-68.75-68.75-37.87,0-68.75,30.88-68.75,68.75,0,37.87,30.88,68.75,68.75,68.75h0Z"/></g><g><path class="cls-2" d="M518.28,107.59h-37.36l-6.94,17.16h-25.49l39-88.34h24.61l39.12,88.34h-26l-6.94-17.16Zm-7.32-18.42l-11.36-28.27-11.36,28.27h22.71Z"/><path class="cls-2" d="M649.02,124.75l-.25-46.82-22.71,38.11h-11.11l-22.59-36.85v45.56h-23.09V36.41h20.57l31.04,50.98,30.29-50.98h20.57l.25,88.34h-22.97Z"/><path class="cls-2" d="M710.8,115.79c-7.28-7.15-10.92-17.29-10.92-30.41V36.41h24.99v48.21c0,14.13,5.6,21.2,16.79,21.2s16.66-7.07,16.66-21.2V36.41h24.61v48.96c0,13.13-3.64,23.26-10.92,30.41-7.28,7.15-17.48,10.73-30.6,10.73s-23.33-3.57-30.6-10.73Z"/><path class="cls-2" d="M821.03,123.87c-6.73-1.77-12.2-4.12-16.4-7.07l8.2-18.42c3.95,2.61,8.54,4.71,13.76,6.31,5.21,1.6,10.35,2.4,15.39,2.4,9.59,0,14.39-2.4,14.39-7.19,0-2.52-1.37-4.39-4.1-5.62-2.74-1.22-7.13-2.5-13.19-3.85-6.65-1.43-12.2-2.96-16.66-4.61-4.46-1.64-8.29-4.27-11.48-7.89-3.2-3.62-4.8-8.5-4.8-14.64,0-5.38,1.47-10.24,4.41-14.58,2.94-4.33,7.34-7.76,13.19-10.29,5.85-2.53,13.02-3.79,21.52-3.79,5.81,0,11.53,.65,17.16,1.96,5.64,1.31,10.6,3.22,14.89,5.74l-7.7,18.55c-8.41-4.54-16.57-6.82-24.48-6.82-4.97,0-8.58,.74-10.85,2.21-2.27,1.47-3.41,3.39-3.41,5.74s1.34,4.12,4.04,5.3c2.69,1.18,7.02,2.4,13,3.66,6.73,1.43,12.3,2.97,16.72,4.61s8.24,4.25,11.48,7.82c3.24,3.58,4.86,8.44,4.86,14.58,0,5.3-1.47,10.1-4.42,14.39-2.94,4.29-7.36,7.72-13.25,10.29-5.89,2.57-13.04,3.85-21.45,3.85-7.15,0-14.09-.88-20.82-2.65Z"/><path class="cls-2" d="M987.48,36.41V124.75h-20.57l-39-47.07v47.07h-24.48V36.41h20.57l38.99,47.07V36.41h24.48Z"/><path class="cls-2" d="M1087.06,105.44v19.31h-70.92V36.41h69.28v19.31h-44.55v14.89h39.25v18.68h-39.25v16.15h46.19Z"/><path class="cls-2" d="M1130.72,56.22h-27.13v-19.81h79.13v19.81h-27.01V124.75h-24.98V56.22Z"/></g></g></g></svg>