<svg xmlns="http://www.w3.org/2000/svg" viewBox="0 0 100 100"><defs><style>.cls-1{fill:#d1b430;}.cls-2{fill:#252a15;}</style></defs><g id="Layer_2" data-name="Layer 2"><g id="Layer_1-2" data-name="Layer 1"><circle class="cls-1" cx="50" cy="50" r="50"/><circle class="cls-2" cx="50" cy="50" r="40.11"/><path class="cls-1" d="M50,24A26,26,0,0,0,27.93,63.76c-1,3.6-2.88,10.41-2.9,10.48a1,1,0,0,0,.27,1,1,1,0,0,0,1,.24L36.6,72.29A26,26,0,1,0,50,24Zm0,50a24,24,0,0,1-12.74-3.65,1,1,0,0,0-.53-.15,1,1,0,0,0-.29,0l-9,2.77c.66-2.41,1.85-6.73,2.54-9.13a1,1,0,0,0-.12-.82A24,24,0,1,1,50,74Z"/><path class="cls-1" d="M67.48,57.17c-1,5.69-4.32,8.57-10,8.57a20.28,20.28,0,0,1-3.1-.25C44.64,64,37,55.07,34.06,47.36c-2.7-7,3-12.82,3.23-13.07A1.1,1.1,0,0,1,37.8,34c2-.4,3.32-.31,3.9.27s3.8,6.33,3.8,7.71-.66,2.51-2.47,4.38c.26,1.53,2,3.79,4.86,6.14a23.94,23.94,0,0,0,6.15,4c.52-.1,2.28-2,3.62-4a1,1,0,0,1,.13-.16,2.28,2.28,0,0,1,2.65-.18,22.85,22.85,0,0,1,2,1.21c1.14.75,2.71,1.78,4.56,2.81A1,1,0,0,1,67.48,57.17Z"/></g></g></svg>