<svg width="25" height="25" viewBox="0 0 25 25" fill="none" xmlns="http://www.w3.org/2000/svg">
    <circle cx="12.5" cy="12.5" r="11.75" stroke="#D1B430" stroke-width="1.5"/>
    <path d="M14.7133 14.9254C14.5534 14.9254 14.4099 14.8131 14.3769 14.6504C14.3389 14.4643 14.4589 14.2828 14.645 14.2448C15.8967 13.99 17.2236 12.449 17.3409 10.0625H15.8229C15.6332 10.0625 15.4792 9.9085 15.4792 9.71875C15.4792 9.529 15.6332 9.375 15.8229 9.375H17.6929C17.8827 9.375 18.0367 9.529 18.0367 9.71875C18.0367 12.6975 16.3995 14.589 14.7825 14.9185C14.7592 14.9231 14.7362 14.9254 14.7133 14.9254Z" fill="white"/>
    <path d="M10.2821 14.9162C10.2574 14.9162 10.2322 14.9135 10.2065 14.908C8.61333 14.5505 7 12.6535 7 9.71875C7 9.529 7.154 9.375 7.34375 9.375H9.17708C9.36683 9.375 9.52083 9.529 9.52083 9.71875C9.52083 9.9085 9.36683 10.0625 9.17708 10.0625H7.69621C7.81308 12.4156 9.12208 13.9602 10.3573 14.237C10.5425 14.2787 10.6589 14.4625 10.6176 14.6477C10.5814 14.8076 10.4393 14.9162 10.2821 14.9162Z" fill="white"/>
    <path d="M13.0728 15.3838C12.8831 15.3838 12.7291 15.5378 12.7291 15.7275H12.2707C12.2707 15.5378 12.1168 15.3838 11.927 15.3838C11.7373 15.3838 11.5833 15.5378 11.5833 15.7275V17.3958C11.5833 17.5856 11.7373 17.7396 11.927 17.7396H13.0728C13.2626 17.7396 13.4166 17.5856 13.4166 17.3958V15.7275C13.4166 15.5378 13.2626 15.3838 13.0728 15.3838Z" fill="white"/>
    <path d="M13.5312 17.1667H11.4687C10.7734 17.1667 10.2083 17.7318 10.2083 18.4271V18.6563C10.2083 18.846 10.3623 19 10.552 19H14.4478C14.6376 19 14.7916 18.846 14.7916 18.6563V18.4271C14.7916 17.7318 14.2265 17.1667 13.5312 17.1667Z" fill="white"/>
    <path d="M15.3645 7.99999H9.63534C9.19304 7.99999 8.83325 8.35978 8.83325 8.80208V12.1273C8.85296 15.0863 12.2428 16.2958 12.3872 16.3458C12.4238 16.3586 12.4619 16.365 12.4999 16.365C12.538 16.365 12.576 16.3586 12.6122 16.3462C12.757 16.2958 16.1666 15.0858 16.1666 12.125V8.80208C16.1666 8.35978 15.8068 7.99999 15.3645 7.99999Z" fill="white"/>
</svg>
