<?xml version="1.0" encoding="utf-8"?>
<!-- Generator: Adobe Illustrator 16.0.0, SVG Export Plug-In . SVG Version: 6.00 Build 0)  -->
<!DOCTYPE svg PUBLIC "-//W3C//DTD SVG 1.1//EN" "http://www.w3.org/Graphics/SVG/1.1/DTD/svg11.dtd">
<svg version="1.1" id="Layer_1" xmlns="http://www.w3.org/2000/svg" xmlns:xlink="http://www.w3.org/1999/xlink" x="0px" y="0px"
	 width="23px" height="23px" viewBox="0 0 23 23" enable-background="new 0 0 23 23" xml:space="preserve">
<rect x="4" y="8" fill="#FFFFFF" width="16" height="6"/>
<path fill="#D1B430" d="M11.5,0.575C5.159,0.575,0,5.218,0,10.925c0,1.995,0.631,3.927,1.828,5.599
	c-0.227,2.506-0.833,4.366-1.715,5.247c-0.117,0.116-0.146,0.295-0.072,0.442c0.065,0.131,0.2,0.212,0.343,0.212
	c0.018,0,0.035-0.001,0.053-0.003c0.155-0.022,3.762-0.541,6.37-2.047c1.481,0.598,3.059,0.9,4.693,0.9
	c6.342,0,11.5-4.644,11.5-10.351S17.842,0.575,11.5,0.575z M6.133,12.459c-0.846,0-1.533-0.688-1.533-1.534
	c0-0.845,0.688-1.533,1.533-1.533s1.533,0.688,1.533,1.533C7.667,11.771,6.979,12.459,6.133,12.459z M11.5,12.459
	c-0.846,0-1.533-0.688-1.533-1.534c0-0.845,0.688-1.533,1.533-1.533s1.533,0.688,1.533,1.533
	C13.033,11.771,12.346,12.459,11.5,12.459z M16.867,12.459c-0.846,0-1.533-0.688-1.533-1.534c0-0.845,0.688-1.533,1.533-1.533
	S18.4,10.08,18.4,10.925C18.4,11.771,17.713,12.459,16.867,12.459z"/>
</svg>
