<?xml version="1.0" encoding="utf-8"?>
<!-- Generator: Adobe Illustrator 16.0.0, SVG Export Plug-In . SVG Version: 6.00 Build 0)  -->
<!DOCTYPE svg PUBLIC "-//W3C//DTD SVG 1.1//EN" "http://www.w3.org/Graphics/SVG/1.1/DTD/svg11.dtd">
<svg version="1.1" id="Layer_1" xmlns="http://www.w3.org/2000/svg" xmlns:xlink="http://www.w3.org/1999/xlink" x="0px" y="0px"
	 width="22px" height="21px" viewBox="0 0 22 21" enable-background="new 0 0 22 21" xml:space="preserve">
<path fill="#FFFFFF" d="M8,0H2C0.897,0,0,0.856,0,1.908v5.725c0,1.053,0.897,1.909,2,1.909h6c1.103,0,2-0.856,2-1.909V1.908
	C10,0.856,9.103,0,8,0z"/>
<path fill="#FFFFFF" d="M20,0h-6c-1.104,0-2,0.856-2,1.908v5.725c0,1.053,0.896,1.909,2,1.909h6c1.104,0,2-0.856,2-1.909V1.908
	C22,0.856,21.104,0,20,0z"/>
<path fill="#FFFFFF" d="M8,11.367H2c-1.103,0-2,0.855-2,1.908v5.726c0,1.052,0.897,1.908,2,1.908h6c1.103,0,2-0.856,2-1.908v-5.726
	C10,12.223,9.103,11.367,8,11.367z"/>
<path fill="#D1B430" d="M19.5,15.184H18v-1.431c0-0.264-0.225-0.478-0.5-0.478h-1c-0.276,0-0.5,0.214-0.5,0.478v1.431h-1.5
	c-0.276,0-0.5,0.214-0.5,0.478v0.954c0,0.264,0.224,0.477,0.5,0.477H16v1.432c0,0.264,0.224,0.478,0.5,0.478h1
	c0.275,0,0.5-0.214,0.5-0.478v-1.432h1.5c0.276,0,0.5-0.213,0.5-0.477v-0.954C20,15.397,19.776,15.184,19.5,15.184z"/>
</svg>
