<?xml version="1.0" encoding="utf-8"?>
<!-- Generator: Adobe Illustrator 16.0.0, SVG Export Plug-In . SVG Version: 6.00 Build 0)  -->
<!DOCTYPE svg PUBLIC "-//W3C//DTD SVG 1.1//EN" "http://www.w3.org/Graphics/SVG/1.1/DTD/svg11.dtd">
<svg version="1.1" id="Layer_1" xmlns="http://www.w3.org/2000/svg" xmlns:xlink="http://www.w3.org/1999/xlink" x="0px" y="0px"
	 width="23px" height="23px" viewBox="0 0 23 23" enable-background="new 0 0 23 23" xml:space="preserve">
<rect x="4" y="5" fill="#FFFFFF" width="16" height="14"/>
<path fill="#D1B430" d="M11.503,0h-0.006C5.156,0,0,5.158,0,11.5c0,2.516,0.811,4.848,2.189,6.74l1.107,1.4l1.88,1.459
	c1.818,1.205,3.988,1.9,6.327,1.9C17.844,23,23,17.841,23,11.5S17.844,0,11.503,0z M18.193,16.239
	c-0.276,0.784-1.377,1.434-2.256,1.622c-0.602,0.129-1.387,0.229-4.028-0.864c-3.379-1.399-5.556-4.835-5.726-5.057
	c-0.163-0.223-1.366-1.818-1.366-3.469c0-1.651,0.838-2.454,1.176-2.799C6.272,5.389,6.73,5.26,7.17,5.26
	c0.142,0,0.27,0.007,0.385,0.013c0.338,0.014,0.507,0.034,0.73,0.568c0.277,0.668,0.953,2.318,1.034,2.488
	c0.082,0.169,0.164,0.399,0.049,0.622C9.26,9.181,9.166,9.283,8.996,9.479c-0.17,0.195-0.331,0.345-0.5,0.555
	C8.34,10.216,8.165,10.412,8.36,10.75c0.196,0.331,0.871,1.434,1.866,2.318c1.284,1.144,2.324,1.509,2.697,1.664
	c0.277,0.115,0.606,0.088,0.812-0.129c0.257-0.276,0.574-0.736,0.897-1.189c0.229-0.325,0.521-0.364,0.824-0.25
	c0.312,0.107,1.954,0.92,2.292,1.089c0.337,0.169,0.561,0.25,0.643,0.392S18.473,15.455,18.193,16.239z"/>
</svg>
