<?xml version="1.0" encoding="utf-8"?>
<!-- Generator: Adobe Illustrator 16.0.0, SVG Export Plug-In . SVG Version: 6.00 Build 0)  -->
<!DOCTYPE svg PUBLIC "-//W3C//DTD SVG 1.1//EN" "http://www.w3.org/Graphics/SVG/1.1/DTD/svg11.dtd">
<svg version="1.1" id="Layer_1" xmlns="http://www.w3.org/2000/svg" xmlns:xlink="http://www.w3.org/1999/xlink" x="0px" y="0px"
	 width="25px" height="23px" viewBox="0 0 25 23" enable-background="new 0 0 25 23" xml:space="preserve">
<rect x="7" y="3" fill="#FFFFFF" width="13" height="12"/>
<path fill="#D1B430" d="M24.268,0.514H0.732C0.328,0.514,0,0.842,0,1.246v16.113c0,0.404,0.328,0.732,0.732,0.732h23.535
	c0.404,0,0.732-0.328,0.732-0.732V1.246C25,0.842,24.672,0.514,24.268,0.514z M16.518,9.943l-6.592,3.663
	c-0.487,0.271-1.088-0.083-1.088-0.641V5.641c0-0.558,0.601-0.911,1.088-0.64l6.592,3.662C17.02,8.941,17.02,9.664,16.518,9.943z
	 M10.303,11.72l4.352-2.417l-4.352-2.417V11.72z"/>
<path fill="#D1B430" d="M17.412,21.236l-1.679-1.68H9.267l-1.679,1.68c-0.461,0.461-0.132,1.25,0.518,1.25h8.789
	C17.546,22.486,17.873,21.696,17.412,21.236z"/>
</svg>
