<?xml version="1.0" encoding="utf-8"?>
<!-- Generator: Adobe Illustrator 16.0.0, SVG Export Plug-In . SVG Version: 6.00 Build 0)  -->
<!DOCTYPE svg PUBLIC "-//W3C//DTD SVG 1.1//EN" "http://www.w3.org/Graphics/SVG/1.1/DTD/svg11.dtd">
<svg version="1.1" id="Layer_1" xmlns="http://www.w3.org/2000/svg" xmlns:xlink="http://www.w3.org/1999/xlink" x="0px" y="0px"
	 width="23px" height="22px" viewBox="0 0 23 22" enable-background="new 0 0 23 22" xml:space="preserve">
<path fill="#D1B430" d="M21.598,1.774c-0.774,0-1.402,0.627-1.402,1.402v2.252c-0.835-1.454-1.998-2.696-3.409-3.632
	C15.014,0.621,12.949,0,10.815,0c-1.459,0-2.876,0.286-4.21,0.851C5.317,1.396,4.161,2.175,3.167,3.167
	C2.175,4.161,1.395,5.317,0.851,6.605C0.286,7.939,0,9.356,0,10.815c0,1.459,0.286,2.876,0.851,4.21
	c0.544,1.288,1.324,2.444,2.317,3.438c0.993,0.992,2.149,1.771,3.438,2.316c1.334,0.564,2.75,0.852,4.21,0.852
	c1.246,0,2.468-0.211,3.633-0.627c1.126-0.4,2.171-0.983,3.108-1.731c0.929-0.741,1.725-1.622,2.365-2.621
	c0.652-1.017,1.127-2.126,1.408-3.298c0.182-0.753-0.281-1.51-1.035-1.691c-0.752-0.181-1.51,0.282-1.691,1.035
	c-0.412,1.717-1.406,3.273-2.796,4.383c-0.694,0.555-1.469,0.986-2.302,1.283c-0.861,0.307-1.766,0.463-2.69,0.463
	c-2.14,0-4.152-0.834-5.665-2.347c-1.513-1.513-2.347-3.524-2.347-5.665c0-2.14,0.833-4.151,2.347-5.665
	c1.513-1.513,3.524-2.346,5.665-2.346c1.581,0,3.109,0.459,4.421,1.329c1.129,0.75,2.045,1.763,2.671,2.953h-1.55
	c-0.774,0-1.402,0.628-1.402,1.402s0.628,1.402,1.402,1.402h5.24C22.372,9.891,23,9.263,23,8.488V3.176
	C23,2.402,22.372,1.774,21.598,1.774z"/>
</svg>
