<?xml version="1.0" encoding="utf-8"?>
<!-- Generator: Adobe Illustrator 16.0.0, SVG Export Plug-In . SVG Version: 6.00 Build 0)  -->
<!DOCTYPE svg PUBLIC "-//W3C//DTD SVG 1.1//EN" "http://www.w3.org/Graphics/SVG/1.1/DTD/svg11.dtd">
<svg version="1.1" id="Layer_1" xmlns="http://www.w3.org/2000/svg" xmlns:xlink="http://www.w3.org/1999/xlink" x="0px" y="0px"
	 width="25px" height="28px" viewBox="0 0 25 28" enable-background="new 0 0 25 28" xml:space="preserve">
<circle fill="none" stroke="#D1B430" stroke-miterlimit="10" cx="12.5" cy="15.5" r="11.75"/>
<circle fill="#30313A" cx="12.396" cy="15.25" r="3"/>
<line fill="none" stroke="#D1B430" stroke-miterlimit="10" x1="12.5" y1="4" x2="12.5" y2="27"/>
<line fill="none" stroke="#D1B430" x1="24" y1="15.5" x2="1" y2="15.5"/>
<line fill="none" stroke="#D1B430" stroke-miterlimit="10" x1="4.637" y1="23.505" x2="20.637" y2="6.656"/>
<line fill="none" stroke="#D1B430" stroke-miterlimit="10" x1="4.364" y1="6.657" x2="20.213" y2="23.507"/>
<g>
	<rect x="3" y="18" fill="none" width="2" height="2"/>
</g>
<g>
	<rect x="3" y="11" fill="none" width="2" height="2"/>
</g>
<g>
	<rect x="20" y="11" fill="none" width="2" height="2"/>
</g>
<g>
	<rect x="8" y="23" fill="none" width="2" height="2"/>
</g>
<g>
	<rect x="8" y="6" fill="none" width="2" height="2"/>
</g>
<g>
	<rect x="15" y="23" fill="none" width="2" height="2"/>
</g>
<g>
	<rect x="15" y="6" fill="none" width="2" height="2"/>
</g>
<g>
	<rect x="20" y="18" fill="none" width="2" height="2"/>
</g>
<path fill="#FFFFFF" d="M14,1.5c0,0.829-0.672,3-1.5,3c-0.829,0-1.5-2.171-1.5-3S11.671,0,12.5,0C13.328,0,14,0.671,14,1.5z"/>
</svg>
